<svg style="display:none"><symbol viewBox="0 0 451.846 451.847" id="arrow-to-right"> <g> <path d="M345.441,248.292L151.154,442.573c-12.359,12.365-32.397,12.365-44.75,0c-12.354-12.354-12.354-32.391,0-44.744
		L278.318,225.92L106.409,54.017c-12.354-12.359-12.354-32.394,0-44.748c12.354-12.359,32.391-12.359,44.75,0l194.287,194.284
		c6.177,6.18,9.262,14.271,9.262,22.366C354.708,234.018,351.617,242.115,345.441,248.292z"/> </g>                </symbol><symbol viewBox="0 0 191.667 191.667" id="check"> <path d="M95.833,0C42.991,0,0,42.99,0,95.833s42.991,95.834,95.833,95.834s95.833-42.991,95.833-95.834S148.676,0,95.833,0z   M150.862,79.646l-60.207,60.207c-2.56,2.56-5.963,3.969-9.583,3.969c-3.62,0-7.023-1.409-9.583-3.969l-30.685-30.685  c-2.56-2.56-3.97-5.963-3.97-9.583c0-3.621,1.41-7.024,3.97-9.584c2.559-2.56,5.962-3.97,9.583-3.97c3.62,0,7.024,1.41,9.583,3.971  l21.101,21.1l50.623-50.623c2.56-2.56,5.963-3.969,9.583-3.969c3.62,0,7.023,1.409,9.583,3.969  C156.146,65.765,156.146,74.362,150.862,79.646z"/>                </symbol><symbol viewBox="0 0 456.795 456.795" id="eye-view"> <g> <g> <path d="M448.947,218.475c-0.922-1.168-23.055-28.933-61-56.81c-50.705-37.253-105.877-56.944-159.551-56.944
			c-53.672,0-108.844,19.691-159.551,56.944c-37.944,27.876-60.077,55.642-61,56.81L0,228.397l7.846,9.923
			c0.923,1.168,23.056,28.934,61,56.811c50.707,37.252,105.879,56.943,159.551,56.943c53.673,0,108.845-19.691,159.55-56.943
			c37.945-27.877,60.078-55.643,61-56.811l7.848-9.923L448.947,218.475z M228.396,315.039c-47.774,0-86.642-38.867-86.642-86.642
			c0-7.485,0.954-14.751,2.747-21.684l-19.781-3.329c-1.938,8.025-2.966,16.401-2.966,25.013c0,30.86,13.182,58.696,34.204,78.187
			c-27.061-9.996-50.072-24.023-67.439-36.709c-21.516-15.715-37.641-31.609-46.834-41.478c9.197-9.872,25.32-25.764,46.834-41.478
			c17.367-12.686,40.379-26.713,67.439-36.71l13.27,14.958c15.498-14.512,36.312-23.412,59.168-23.412
			c47.774,0,86.641,38.867,86.641,86.642C315.037,276.172,276.17,315.039,228.396,315.039z M368.273,269.875
			c-17.369,12.686-40.379,26.713-67.439,36.709c21.021-19.49,34.203-47.326,34.203-78.188s-13.182-58.697-34.203-78.188
			c27.061,9.997,50.07,24.024,67.439,36.71c21.516,15.715,37.641,31.609,46.834,41.477
			C405.91,238.269,389.787,254.162,368.273,269.875z"/> <path d="M173.261,211.555c-1.626,5.329-2.507,10.982-2.507,16.843c0,31.834,25.807,57.642,57.642,57.642
			c31.834,0,57.641-25.807,57.641-57.642s-25.807-57.642-57.641-57.642c-15.506,0-29.571,6.134-39.932,16.094l28.432,32.048
			L173.261,211.555z"/> </g> </g>                </symbol><symbol viewBox="0 0 430.113 430.114" id="icon-fb"> <g> <path id="icon-fb-Facebook" d="M158.081,83.3c0,10.839,0,59.218,0,59.218h-43.385v72.412h43.385v215.183h89.122V214.936h59.805
		c0,0,5.601-34.721,8.316-72.685c-7.784,0-67.784,0-67.784,0s0-42.127,0-49.511c0-7.4,9.717-17.354,19.321-17.354
		c9.586,0,29.818,0,48.557,0c0-9.859,0-43.924,0-75.385c-25.016,0-53.476,0-66.021,0C155.878-0.004,158.081,72.48,158.081,83.3z"/> </g>                </symbol><symbol viewBox="0 0 90 90" id="icon-flickr"> <g> <path id="icon-flickr-Flickr" d="M90,45.004C90,56.047,80.973,65,69.83,65c-11.139,0-20.169-8.953-20.169-19.996
		C49.661,33.955,58.691,25,69.83,25C80.973,25,90,33.955,90,45.004z M20.169,25C9.03,25,0,33.955,0,45.004
		C0,56.047,9.03,65,20.169,65s20.169-8.953,20.169-19.996C40.338,33.955,31.308,25,20.169,25z"/> </g>                </symbol><symbol viewBox="0 0 90 90" id="icon-g+"> <g> <path id="icon-g+-Google" d="M74.499,0H50.144c-6.382,0-14.421,0.942-21.158,6.49c-5.09,4.374-7.566,10.392-7.566,15.828
		c0,9.211,7.094,18.546,19.625,18.546c1.182,0,2.477-0.12,3.787-0.235c-0.592,1.413-1.189,2.594-1.189,4.605
		c0,3.662,1.893,5.902,3.547,8.029c-5.314,0.353-15.249,0.942-22.583,5.428c-6.975,4.143-9.107,10.16-9.107,14.414
		C15.499,81.846,23.778,90,40.923,90c20.336,0,31.098-11.22,31.098-22.33c0-8.143-4.729-12.164-9.932-16.534l-4.258-3.305
		c-1.295-1.065-3.068-2.479-3.068-5.08c0-2.597,1.773-4.254,3.307-5.789c4.964-3.896,9.933-8.03,9.933-16.77
		c0-8.979-5.68-13.704-8.396-15.947h7.334L74.499,0z M64.103,72.279c0,7.322-6.033,12.753-17.385,12.753
		c-12.648,0-20.809-6.024-20.809-14.405c0-8.393,7.568-11.218,10.166-12.164c4.969-1.656,11.352-1.891,12.414-1.891
		c1.184,0,1.775,0,2.725,0.115C60.202,63.064,64.103,66.257,64.103,72.279z M54.642,34.249c-1.893,1.886-5.088,3.305-8.045,3.305
		c-10.164,0-14.772-13.113-14.772-21.023c0-3.072,0.592-6.258,2.598-8.74c1.893-2.362,5.201-3.899,8.277-3.899
		c9.812,0,14.899,13.229,14.899,21.73C57.599,27.752,57.358,31.528,54.642,34.249z"/> </g>                </symbol><symbol viewBox="0 0 430.117 430.117" id="icon-linkedin"> <g> <path id="icon-linkedin-LinkedIn" d="M430.117,261.543V420.56h-92.188V272.193c0-37.271-13.334-62.707-46.703-62.707
		c-25.473,0-40.632,17.142-47.301,33.724c-2.432,5.928-3.058,14.179-3.058,22.477V420.56h-92.219c0,0,1.242-251.285,0-277.32h92.21
		v39.309c-0.187,0.294-0.43,0.611-0.606,0.896h0.606v-0.896c12.251-18.869,34.13-45.824,83.102-45.824
		C384.633,136.724,430.117,176.361,430.117,261.543z M52.183,9.558C20.635,9.558,0,30.251,0,57.463
		c0,26.619,20.038,47.94,50.959,47.94h0.616c32.159,0,52.159-21.317,52.159-47.94C103.128,30.251,83.734,9.558,52.183,9.558z
		 M5.477,420.56h92.184v-277.32H5.477V420.56z"/> </g>                </symbol><symbol viewBox="0 0 256 209" id="icon-twi"><path d="M256 25.45a105.04 105.04 0 0 1-30.166 8.27c10.845-6.5 19.172-16.793 23.093-29.057a105.183 105.183 0 0 1-33.351 12.745C205.995 7.201 192.346.822 177.239.822c-29.006 0-52.523 23.516-52.523 52.52 0 4.117.465 8.125 1.36 11.97-43.65-2.191-82.35-23.1-108.255-54.876-4.52 7.757-7.11 16.78-7.11 26.404 0 18.222 9.273 34.297 23.365 43.716a52.312 52.312 0 0 1-23.79-6.57c-.003.22-.003.44-.003.661 0 25.447 18.104 46.675 42.13 51.5a52.592 52.592 0 0 1-23.718.9c6.683 20.866 26.08 36.05 49.062 36.475-17.975 14.086-40.622 22.483-65.228 22.483-4.24 0-8.42-.249-12.529-.734 23.243 14.902 50.85 23.597 80.51 23.597 96.607 0 149.434-80.031 149.434-149.435 0-2.278-.05-4.543-.152-6.795A106.748 106.748 0 0 0 256 25.45"/></symbol><symbol viewBox="0 0 487.3 487.3" id="list"> <g> <g> <path d="M487.2,69.7c0,12.9-10.5,23.4-23.4,23.4h-322c-12.9,0-23.4-10.5-23.4-23.4s10.5-23.4,23.4-23.4h322.1    C476.8,46.4,487.2,56.8,487.2,69.7z M463.9,162.3H141.8c-12.9,0-23.4,10.5-23.4,23.4s10.5,23.4,23.4,23.4h322.1    c12.9,0,23.4-10.5,23.4-23.4C487.2,172.8,476.8,162.3,463.9,162.3z M463.9,278.3H141.8c-12.9,0-23.4,10.5-23.4,23.4    s10.5,23.4,23.4,23.4h322.1c12.9,0,23.4-10.5,23.4-23.4C487.2,288.8,476.8,278.3,463.9,278.3z M463.9,394.3H141.8    c-12.9,0-23.4,10.5-23.4,23.4s10.5,23.4,23.4,23.4h322.1c12.9,0,23.4-10.5,23.4-23.4C487.2,404.8,476.8,394.3,463.9,394.3z     M38.9,30.8C17.4,30.8,0,48.2,0,69.7s17.4,39,38.9,39s38.9-17.5,38.9-39S60.4,30.8,38.9,30.8z M38.9,146.8    C17.4,146.8,0,164.2,0,185.7s17.4,38.9,38.9,38.9s38.9-17.4,38.9-38.9S60.4,146.8,38.9,146.8z M38.9,262.8    C17.4,262.8,0,280.2,0,301.7s17.4,38.9,38.9,38.9s38.9-17.4,38.9-38.9S60.4,262.8,38.9,262.8z M38.9,378.7    C17.4,378.7,0,396.1,0,417.6s17.4,38.9,38.9,38.9s38.9-17.4,38.9-38.9C77.8,396.2,60.4,378.7,38.9,378.7z"/> </g> </g>                </symbol><symbol viewBox="0 0 56.966 56.966" id="search-glass"> <path d="M55.146,51.887L41.588,37.786c3.486-4.144,5.396-9.358,5.396-14.786c0-12.682-10.318-23-23-23s-23,10.318-23,23
	s10.318,23,23,23c4.761,0,9.298-1.436,13.177-4.162l13.661,14.208c0.571,0.593,1.339,0.92,2.162,0.92
	c0.779,0,1.518-0.297,2.079-0.837C56.255,54.982,56.293,53.08,55.146,51.887z M23.984,6c9.374,0,17,7.626,17,17s-7.626,17-17,17
	s-17-7.626-17-17S14.61,6,23.984,6z"/>                </symbol><symbol viewBox="0 0 475.082 475.081" id="share-arrow"> <g> <g> <path d="M469.658,133.333L360.029,23.697c-3.621-3.617-7.909-5.424-12.854-5.424c-2.275,0-4.661,0.476-7.132,1.425
			c-7.426,3.237-11.139,8.852-11.139,16.846v54.821h-45.683c-20.174,0-38.879,1.047-56.101,3.14
			c-17.224,2.092-32.404,4.993-45.537,8.708c-13.134,3.708-24.983,8.326-35.547,13.846c-10.562,5.518-19.555,11.372-26.98,17.559
			c-7.426,6.186-13.943,13.23-19.558,21.129c-5.618,7.898-10.088,15.653-13.422,23.267c-3.328,7.616-5.992,15.99-7.992,25.125
			c-2.002,9.137-3.333,17.701-3.999,25.693c-0.666,7.994-0.999,16.657-0.999,25.979c0,10.663,1.668,22.271,4.998,34.838
			c3.331,12.559,6.995,23.407,10.992,32.545c3.996,9.13,8.709,18.603,14.134,28.403c5.424,9.802,9.182,16.317,11.276,19.555
			c2.093,3.23,4.095,6.187,5.997,8.85c1.903,2.474,4.377,3.71,7.421,3.71c0.765,0,1.902-0.186,3.427-0.568
			c4.377-2.095,6.279-5.325,5.708-9.705c-8.564-63.954-1.52-108.973,21.128-135.047c21.892-24.934,63.575-37.403,125.051-37.403
			h45.686v54.816c0,8.001,3.71,13.613,11.136,16.851c2.471,0.951,4.853,1.424,7.132,1.424c5.14,0,9.425-1.807,12.854-5.421
			l109.633-109.637c3.613-3.619,5.424-7.898,5.424-12.847C475.082,141.23,473.271,136.944,469.658,133.333z"/> <path d="M395.996,292.356c-3.625-1.529-6.951-0.763-9.993,2.283c-4.948,4.568-10.092,8.093-15.42,10.564
			c-3.433,1.902-5.141,4.66-5.141,8.277v61.104c0,12.562-4.466,23.308-13.415,32.26c-8.945,8.946-19.704,13.419-32.264,13.419
			H82.222c-12.564,0-23.318-4.473-32.264-13.419c-8.947-8.952-13.418-19.697-13.418-32.26V137.039
			c0-12.563,4.471-23.313,13.418-32.259c8.945-8.947,19.699-13.418,32.264-13.418h31.977c1.141,0,2.666-0.383,4.568-1.143
			c10.66-6.473,23.313-12.185,37.972-17.133c4.949-0.95,7.423-3.994,7.423-9.136c0-2.474-0.903-4.611-2.712-6.423
			c-1.809-1.804-3.946-2.708-6.423-2.708H82.226c-22.65,0-42.018,8.042-58.102,24.125C8.042,95.026,0,114.394,0,137.044v237.537
			c0,22.651,8.042,42.018,24.125,58.102c16.084,16.084,35.452,24.126,58.102,24.126h237.541c22.647,0,42.017-8.042,58.101-24.126
			c16.085-16.084,24.127-35.45,24.127-58.102v-73.946C401.995,296.829,399.996,294.071,395.996,292.356z"/> </g> </g>                </symbol><symbol viewBox="0 0 480.224 480.225" id="shopping-cart-buy"> <g> <g> <path d="M420.8,211.761l-290.2-0.051l-12.164-41.877c-1.813-6.242-6.839-11.175-13.116-12.873l-42.57-11.513
			c-1.604-0.432-3.253-0.652-4.902-0.652c-8.448,0-15.89,5.702-18.098,13.863c-1.308,4.835-0.653,9.894,1.842,14.237
			c2.495,4.344,6.532,7.457,11.368,8.764l32.395,8.76l65.766,237.212c-9.368,4.621-15.441,14.199-15.441,24.861
			c0,15.291,12.44,27.732,27.732,27.732s27.733-12.441,27.733-27.732c0-0.361-0.007-0.721-0.021-1.08h133.879
			c-0.016,0.359-0.021,0.719-0.021,1.08c0,15.291,12.439,27.732,27.731,27.732s27.733-12.441,27.733-27.732
			c0-14.055-10.687-25.838-24.36-27.52c-33.275-5.375-169.084-11.941-169.084-11.941l-4.461-17.455h169.449
			c8.663,0,16.366-5.822,18.732-14.156l36.619-128.996h13.459c11.229,0,20.33-9.105,20.33-20.333
			C441.132,220.863,432.03,211.761,420.8,211.761z M204.969,352.408h-31.764c-0.868-0.017-2.143,0.184-2.725-1.859
			c-0.737-2.594-1.772-6.159-1.772-6.159l-24.893-87.692c-0.122-0.426-0.034-0.895,0.233-1.248c0.269-0.356,0.694-0.569,1.14-0.569
			h38.604c0.672,0,1.245,0.459,1.391,1.116l21.055,94.279l0.076,0.289c0.04,0.131,0.06,0.271,0.06,0.416
			C206.375,351.759,205.746,352.396,204.969,352.408z M286.03,256.617l-17.156,94.676c-0.146,0.656-0.719,1.115-1.392,1.115h-23.958
			c-0.675,0-1.247-0.459-1.395-1.117l-17.155-94.676c-0.095-0.422,0.007-0.859,0.28-1.201c0.271-0.34,0.678-0.535,1.112-0.535h58.27
			c0.437,0,0.84,0.195,1.114,0.537C286.023,255.756,286.124,256.193,286.03,256.617z M367.189,256.697l-26.876,94.672
			c-0.173,0.611-0.738,1.039-1.372,1.039h-32.87c-0.437,0-0.841-0.195-1.113-0.533c-0.272-0.342-0.374-0.781-0.279-1.205
			l21.142-94.674c0.144-0.647,0.729-1.117,1.394-1.117h38.604c0.444,0,0.87,0.213,1.137,0.568
			C367.221,255.802,367.309,256.27,367.189,256.697z"/> <path d="M253.147,185.853c3.932,6.797,14.071,6.78,17.988-0.012l49.671-74.677c1.997-3.468,1.81-7.883-0.481-11.159
			c-2.173-3.107-5.54-4.42-9.223-4.416c-3.642,0.002-7.284,0.002-10.924,0.004l-17.239,0.013V20.84
			c0-11.511-9.331-20.84-20.843-20.84c-11.511,0-20.842,9.329-20.842,20.84v74.791l-12.877,0.009l-16.022,0.013
			c-7.839,0.002-12.917,8.777-8.983,15.587L253.147,185.853z"/> </g> </g>                </symbol><symbol viewBox="0 0 504.256 504.256" id="shopping-cart"> <g> <path d="M478.755,125.762l-363.982-0.063L99.517,73.176c-2.274-7.831-8.578-14.018-16.45-16.147L29.673,42.591
		c-2.012-0.544-4.081-0.82-6.149-0.82c-10.596,0-19.93,7.15-22.698,17.388c-1.641,6.065-0.82,12.407,2.31,17.856
		c3.129,5.449,8.192,9.353,14.258,10.993l40.631,10.987l82.486,297.522c-11.749,5.797-19.367,17.809-19.367,31.184
		c0,19.18,15.604,34.783,34.783,34.783c19.179,0,34.784-15.604,34.784-34.783c0-0.453-0.009-0.904-0.026-1.357h167.917
		c-0.019,0.453-0.026,0.906-0.026,1.357c0,19.18,15.604,34.783,34.784,34.783c19.18,0,34.783-15.604,34.783-34.783
		c0-17.629-13.402-32.408-30.554-34.518c-41.737-6.74-212.073-14.977-212.073-14.977l-5.595-21.894h212.53
		c10.866,0,20.526-7.302,23.495-17.754l45.93-161.797h16.88c14.083,0,25.5-11.417,25.5-25.5S492.838,125.762,478.755,125.762z
		 M208.05,302.168h-39.839c-1.089-0.02-2.688,0.231-3.417-2.332c-0.926-3.254-2.223-7.725-2.223-7.725l-31.223-109.99
		c-0.152-0.535-0.042-1.121,0.293-1.564c0.337-0.446,0.871-0.712,1.43-0.712h48.418c0.844,0,1.562,0.575,1.745,1.399l26.407,118.246
		l0.096,0.365c0.05,0.163,0.075,0.338,0.075,0.521C209.812,301.356,209.023,302.153,208.05,302.168z M309.718,182.025
		l-21.519,118.746c-0.183,0.822-0.9,1.396-1.744,1.396h-30.05c-0.845,0-1.563-0.576-1.748-1.398L233.14,182.021
		c-0.119-0.53,0.009-1.079,0.352-1.506c0.341-0.425,0.85-0.669,1.395-0.669h73.084c0.546,0,1.055,0.244,1.397,0.672
		C309.71,180.942,309.837,181.493,309.718,182.025z M411.511,182.125l-33.709,118.742c-0.218,0.767-0.926,1.304-1.722,1.304h-41.227
		c-0.547,0-1.056-0.244-1.396-0.67c-0.342-0.427-0.469-0.979-0.351-1.511l26.517-118.745c0.181-0.81,0.916-1.398,1.748-1.398h48.417
		c0.558,0,1.091,0.265,1.427,0.71C411.553,181.001,411.662,181.587,411.511,182.125z"/> </g>                </symbol><symbol viewBox="0 0 475.075 475.075" id="star"> <g> <path d="M475.075,186.573c0-7.043-5.328-11.42-15.992-13.135L315.766,152.6L251.529,22.694c-3.614-7.804-8.281-11.704-13.99-11.704
		c-5.708,0-10.372,3.9-13.989,11.704L159.31,152.6L15.986,173.438C5.33,175.153,0,179.53,0,186.573c0,3.999,2.38,8.567,7.139,13.706
		l103.924,101.068L86.51,444.096c-0.381,2.666-0.57,4.575-0.57,5.712c0,3.997,0.998,7.374,2.996,10.136
		c1.997,2.766,4.993,4.142,8.992,4.142c3.428,0,7.233-1.137,11.42-3.423l128.188-67.386l128.194,67.379
		c4,2.286,7.806,3.43,11.416,3.43c7.812,0,11.714-4.75,11.714-14.271c0-2.471-0.096-4.374-0.287-5.716l-24.551-142.744
		l103.634-101.069C472.604,195.33,475.075,190.76,475.075,186.573z M324.619,288.5l20.551,120.2l-107.634-56.821L129.614,408.7
		l20.843-120.2l-87.365-84.799l120.484-17.7l53.959-109.064l53.957,109.064l120.494,17.7L324.619,288.5z"/> </g>                </symbol><symbol viewBox="0 0 33.109 33.109" id="tile"> <g> <path d="M33.109,0.105v14.621H18.49V0.105H33.109z M0,14.727h14.62V0.105H0V14.727z M18.49,33.004h14.619V18.385H18.49V33.004z    M0,33.004h14.62V18.385H0V33.004z"/> </g>                </symbol></svg>